<svg width="716" height="718" xmlns="http://www.w3.org/2000/svg" version="1.1" xml:space="preserve">
 <desc>Created with Fabric.js 5.2.4</desc>

 <g>
  <title>Layer 1</title>
  <g transform="matrix(1 0 0 1 540 540)" id="fa4bc533-ca67-4251-a291-c13df8a8fcf8"/>
  <path stroke=" rgb(0,0,0)" d="m690.75113,693.75114l-192.35318,-192.35318m0,0c108.41065,-108.41065 108.41065,-284.17934 0,-392.58999c-108.41065,-108.41065 -284.17934,-108.41065 -392.58999,0c-108.41065,108.41065 -108.41065,284.17934 0,392.58999c108.41065,108.41065 284.17934,108.41065 392.58999,0z" stroke-linecap=" round" stroke-width="45" stroke-dasharray=" none" stroke-dashoffset="0" stroke-linejoin=" round" stroke-miterlimit="4" fill=" rgb(0,0,0)" fill-opacity="0" fill-rule=" nonzero" id="svg_8"/>
  <path stroke=" none" d="m285.08681,127.00001c10.73915,0 19.44511,8.34063 19.44511,18.62912l9.77897,173.85825l116.53648,89.4085c9.04198,5.22584 12.07814,16.41002 6.83885,25.19402c-5.23929,8.784 -16.8383,11.95617 -26.1284,7.14613l-137.62025,-90.27209c-6.05832,-3.31524 -12.80692,-22.99075 -12.80925,-29.67488l4.51337,-175.65994c0,-10.28849 8.70596,-18.62912 19.44511,-18.62912z" stroke-linecap=" butt" stroke-width="0" stroke-dasharray=" none" stroke-dashoffset="0" stroke-linejoin=" miter" stroke-miterlimit="4" fill=" rgb(0,0,0)" fill-rule=" nonzero" id="svg_10"/>
 </g>
</svg>